<svg xmlns="http://www.w3.org/2000/svg" width="1200" height="700" viewBox="0 0 1200 700"><style>.bg{fill:#f3f5f4}.side{fill:#173642}.nav{font:15px sans-serif;fill:#dce8e8}.brand{font:bold 24px sans-serif;fill:white}.h1{font:bold 28px sans-serif;fill:#173642}.sub{font:14px sans-serif;fill:#64737a}.card{fill:white;stroke:#dce3e4}.small{font:11px sans-serif;fill:#6c7d84}.title{font:bold 18px sans-serif;fill:#203942}.muted{font:12px sans-serif;fill:#728087}.metric{font:bold 30px sans-serif;fill:#1a5963}</style><rect width="1200" height="700" class="bg"/><rect width="270" height="700" class="side"/><text x="42" y="70" class="brand">ZH 知华科技</text><text x="42" y="105" class="nav">SEAL ENTERPRISE</text><text x="48" y="190" class="nav">印章台账</text><text x="48" y="230" class="nav">用印申请</text><text x="48" y="270" class="nav">分级审批</text><text x="48" y="310" class="nav">用印执行</text><text x="48" y="350" class="nav">证照管理</text><text x="48" y="390" class="nav">企业资质</text><text x="320" y="70" class="h1">企业印章证照与资质管理系统 · 运营总览</text><text x="320" y="102" class="sub">让每一次用印、证照借用和资质续期都有授权、证据与完整轨迹</text><g transform="translate(320,135)"><rect width="780" height="80" rx="12" class="card"/><text x="24" y="30" class="small">企业业务控制中心</text><text x="24" y="62" class="metric">模块 9 · 状态流转 · 风险 · SLA · 审计</text></g><g transform="translate(320,250)"><rect width="240" height="120" rx="12" class="card"/><text x="20" y="38" class="small">SEAL_MASTER</text><text x="20" y="70" class="title">印章台账</text><text x="20" y="96" class="muted">维护实体印章、电子印章、保管人、</text></g><g transform="translate(590,250)"><rect width="240" height="120" rx="12" class="card"/><text x="20" y="38" class="small">SEAL_REQUEST</text><text x="20" y="70" class="title">用印申请</text><text x="20" y="96" class="muted">登记文件、份数、事由、金额、相对</text></g><g transform="translate(860,250)"><rect width="240" height="120" rx="12" class="card"/><text x="20" y="38" class="small">APPROVAL</text><text x="20" y="70" class="title">分级审批</text><text x="20" y="96" class="muted">按印章、金额、合同类型和风险执行</text></g><g transform="translate(320,400)"><rect width="240" height="120" rx="12" class="card"/><text x="20" y="38" class="small">SEAL_EXECUTION</text><text x="20" y="70" class="title">用印执行</text><text x="20" y="96" class="muted">核验授权、记录盖印、影像、经办人</text></g><g transform="translate(590,400)"><rect width="240" height="120" rx="12" class="card"/><text x="20" y="38" class="small">LICENSE</text><text x="20" y="70" class="title">证照管理</text><text x="20" y="96" class="muted">管理营业执照、许可证、登记证和原</text></g><g transform="translate(860,400)"><rect width="240" height="120" rx="12" class="card"/><text x="20" y="38" class="small">QUALIFICATION</text><text x="20" y="70" class="title">企业资质</text><text x="20" y="96" class="muted">维护资质等级、适用业务、发证机关</text></g><text x="320" y="655" class="sub">界面示意 · 上海如静知华信息科技有限公司 · https://www.zhuatech.cn/</text></svg>